# xmcd
#
# Track frame offsets: 
#        180
#        12390
#        25125
#        39880
#        52345
#        64710
#        77100
#        93510
#        104620
#        117005
#        127800
#        142745
#        156560
#        169850
#        180615
#        191705
#        205980
#        218535
#        229295
#        239300
#        254120
#        266575
#        279860
#        294085
#        306370
#
# Disc length: 4252 seconds
#
# Revision: 3
# Processed by: cddbd v1.5.2PL0 Copyright (c) Steve Scherf et al.
# Submitted via: ExactAudioCopy v0.99pb4
#
DISCID=68109a19
DTITLE=Elmore James - The Master Of Slide Guitar
DYEAR=1900
DGENRE=Blues
TTITLE0=Blues Before Sunrise
TTITLE1=I Was A Fool
TTITLE2=Sunnyland
TTITLE3=Standing At The Crossroads
TTITLE4=Sno Nuff I Do
TTITLE5=Happy Home
TTITLE6=Long Tall Woman
TTITLE7=So Mean To Me
TTITLE8=My Best Friend
TTITLE9=No Love In My Heart
TTITLE10=It Hurts Me Too
TTITLE11=Hand In Hand
TTITLE12=Dust My Broom
TTITLE13=Coming Home
TTITLE14=Look On Yonder Wall
TTITLE15=I Believe
TTITLE16=Cry For Me Baby
TTITLE17=Take Me Where You Go
TTITLE18=Mean and Evil
TTITLE19=Wild About You Baby
TTITLE20=Dark and Dreary
TTITLE21=Goodbye Baby
TTITLE22=Dust My Blues
TTITLE23=Mean Mistreatin' Mama
TTITLE24=The Sky Is Crying
EXTD=
EXTT0=
EXTT1=
EXTT2=
EXTT3=
EXTT4=
EXTT5=
EXTT6=
EXTT7=
EXTT8=
EXTT9=
EXTT10=
EXTT11=
EXTT12=
EXTT13=
EXTT14=
EXTT15=
EXTT16=
EXTT17=
EXTT18=
EXTT19=
EXTT20=
EXTT21=
EXTT22=
EXTT23=
EXTT24=
PLAYORDER=
